<svg width="68" height="68" viewBox="0 0 68 68" fill="none" xmlns="http://www.w3.org/2000/svg">
<g clip-path="url(#clip0_5_30)">
<path d="M30.5 24L39.5933 36H21.4067L30.5 24Z" fill="#FFD645"/>
<path d="M42 17L54.9904 36.5H29.0096L42 17Z" fill="#FFD645"/>
<path d="M66.0078 47.9453H1.99219C0.891969 47.9453 0 48.8373 0 49.9375V66.0078C0 67.108 0.891969 68 1.99219 68H66.0078C67.108 68 68 67.108 68 66.0078V49.9375C68 48.8373 67.108 47.9453 66.0078 47.9453ZM64.0156 64.0156H59.8984V57.9062C59.8984 56.806 59.0065 55.9141 57.9062 55.9141C56.806 55.9141 55.9141 56.806 55.9141 57.9062V64.0156H51.9297V61.8906C51.9297 60.7904 51.0377 59.8984 49.9375 59.8984C48.8373 59.8984 47.9453 60.7904 47.9453 61.8906V64.0156H43.9609V57.9062C43.9609 56.806 43.069 55.9141 41.9688 55.9141C40.8685 55.9141 39.9766 56.806 39.9766 57.9062V64.0156H35.9922V61.8906C35.9922 60.7904 35.1002 59.8984 34 59.8984C32.8998 59.8984 32.0078 60.7904 32.0078 61.8906V64.0156H28.0234V57.9062C28.0234 56.806 27.1315 55.9141 26.0312 55.9141C24.931 55.9141 24.0391 56.806 24.0391 57.9062V64.0156H20.0547V61.8906C20.0547 60.7904 19.1627 59.8984 18.0625 59.8984C16.9623 59.8984 16.0703 60.7904 16.0703 61.8906V64.0156H12.0859V57.9062C12.0859 56.806 11.194 55.9141 10.0938 55.9141C8.99353 55.9141 8.10156 56.806 8.10156 57.9062V64.0156H3.98438V51.9297H64.0156V64.0156Z" fill="black"/>
<path d="M66.0078 13.1964C67.108 13.1964 68 12.2225 68 11.0211V2.17523C68 0.973921 67.108 0 66.0078 0H57.9062C56.806 0 55.9141 0.973921 55.9141 2.17523V4.35045H12.0859V2.17523C12.0859 0.973921 11.194 0 10.0938 0H1.99219C0.891969 0 0 0.973921 0 2.17523V11.0211C0 12.2225 0.891969 13.1964 1.99219 13.1964H3.98438V34.9486H1.99219C0.891969 34.9486 0 35.9226 0 37.1239V45.8248C0 47.0261 0.891969 48 1.99219 48H10.0938C11.194 48 12.0859 47.0261 12.0859 45.8248V43.6495C13.6386 43.6495 54.4444 43.6495 55.9141 43.6495V45.8248C55.9141 47.0261 56.806 48 57.9062 48H66.0078C67.108 48 68 47.0261 68 45.8248V37.1239C68 35.9226 67.108 34.9486 66.0078 34.9486H64.0156V13.1964H66.0078ZM3.98438 4.35045H8.10156V8.84592H3.98438V4.35045ZM8.10156 43.6495H3.98438V39.2991H8.10156V43.6495ZM22.0469 39.2991L30.0156 27.6979L37.9844 39.2991H22.0469ZM42.9648 39.2991L35.9707 29.1169L41.9688 19.2931L54.1838 39.2991H42.9648ZM56.6269 35.4575L43.6264 14.1649C42.8403 12.8776 41.1003 12.8724 40.3111 14.1649L33.4355 25.4259L31.6094 22.7674C30.8124 21.6071 29.2173 21.6094 28.4219 22.7674L17.0664 39.2991H12.0859V37.1239C12.0859 35.9226 11.194 34.9486 10.0938 34.9486H7.96875V13.1964H10.0938C11.194 13.1964 12.0859 12.2225 12.0859 11.0211V8.70091H55.9141V11.0211C55.9141 12.2225 56.806 13.1964 57.9062 13.1964H60.0312V34.9486H57.9062C57.419 34.9486 56.9731 35.1402 56.6269 35.4575ZM64.0156 43.6495H59.8984V39.2991H64.0156V43.6495ZM59.8984 8.84592V4.35045H64.0156V8.84592H59.8984Z" fill="black"/>
<path d="M18.0625 12.0859C14.767 12.0859 12.0859 14.767 12.0859 18.0625C12.0859 21.358 14.767 24.0391 18.0625 24.0391C21.358 24.0391 24.0391 21.358 24.0391 18.0625C24.0391 14.767 21.358 12.0859 18.0625 12.0859ZM18.0625 20.0547C16.964 20.0547 16.0703 19.161 16.0703 18.0625C16.0703 16.964 16.964 16.0703 18.0625 16.0703C19.161 16.0703 20.0547 16.964 20.0547 18.0625C20.0547 19.161 19.161 20.0547 18.0625 20.0547Z" fill="black"/>
</g>
<defs>
<clipPath id="clip0_5_30">
<rect width="68" height="68" fill="white"/>
</clipPath>
</defs>
</svg>
